<svg xmlns="http://www.w3.org/2000/svg" width="50" height="50" viewBox="0 0 50 50"><defs><style>.a,.b{fill:none;}.b{opacity:0.87;}.c{fill:#fff;}</style></defs><path class="a" d="M0,0H50V50H0Z"/><path class="b" d="M0,0H50V50H0Z"/><path class="c" d="M5.083,25.5c1.146,0,2.083-1.387,2.083-3.083s-.937-3.083-2.083-3.083S3,20.721,3,22.417,3.938,25.5,5.083,25.5Zm0,12.333c1.146,0,2.083-1.388,2.083-3.083s-.937-3.083-2.083-3.083S3,33.054,3,34.75,3.938,37.833,5.083,37.833Zm0-24.667c1.146,0,2.083-1.387,2.083-3.083S6.229,7,5.083,7,3,8.387,3,10.083,3.938,13.167,5.083,13.167ZM13.417,25.5h25c1.146,0,2.083-1.387,2.083-3.083s-.937-3.083-2.083-3.083h-25c-1.146,0-2.083,1.387-2.083,3.083S12.271,25.5,13.417,25.5Zm0,12.333h25c1.146,0,2.083-1.388,2.083-3.083s-.937-3.083-2.083-3.083h-25c-1.146,0-2.083,1.388-2.083,3.083S12.271,37.833,13.417,37.833Zm-2.083-27.75c0,1.7.937,3.083,2.083,3.083h25c1.146,0,2.083-1.387,2.083-3.083S39.562,7,38.417,7h-25C12.271,7,11.333,8.387,11.333,10.083ZM5.083,25.5c1.146,0,2.083-1.387,2.083-3.083s-.937-3.083-2.083-3.083S3,20.721,3,22.417,3.938,25.5,5.083,25.5Zm0,12.333c1.146,0,2.083-1.388,2.083-3.083s-.937-3.083-2.083-3.083S3,33.054,3,34.75,3.938,37.833,5.083,37.833Zm0-24.667c1.146,0,2.083-1.387,2.083-3.083S6.229,7,5.083,7,3,8.387,3,10.083,3.938,13.167,5.083,13.167ZM13.417,25.5h25c1.146,0,2.083-1.387,2.083-3.083s-.937-3.083-2.083-3.083h-25c-1.146,0-2.083,1.387-2.083,3.083S12.271,25.5,13.417,25.5Zm0,12.333h25c1.146,0,2.083-1.388,2.083-3.083s-.937-3.083-2.083-3.083h-25c-1.146,0-2.083,1.388-2.083,3.083S12.271,37.833,13.417,37.833Zm-2.083-27.75c0,1.7.937,3.083,2.083,3.083h25c1.146,0,2.083-1.387,2.083-3.083S39.562,7,38.417,7h-25C12.271,7,11.333,8.387,11.333,10.083Z" transform="translate(3.25 2.583)"/></svg>