<svg xmlns="http://www.w3.org/2000/svg" width="50" height="50" viewBox="0 0 50 50"><defs><style>.a{fill:none;}.b{fill:#fff;}</style></defs><path class="a" d="M0,0H50V50H0Z"/><path class="b" d="M42.111,3H7.889A4.9,4.9,0,0,0,3,7.889V42.111A4.9,4.9,0,0,0,7.889,47H42.111A4.9,4.9,0,0,0,47,42.111V7.889A4.9,4.9,0,0,0,42.111,3ZM15.222,37.222a2.452,2.452,0,0,1-2.444-2.444V22.556a2.444,2.444,0,1,1,4.889,0V34.778A2.452,2.452,0,0,1,15.222,37.222Zm9.778,0a2.452,2.452,0,0,1-2.444-2.444V15.222a2.444,2.444,0,1,1,4.889,0V34.778A2.452,2.452,0,0,1,25,37.222Zm9.778,0a2.452,2.452,0,0,1-2.444-2.444V29.889a2.444,2.444,0,1,1,4.889,0v4.889A2.452,2.452,0,0,1,34.778,37.222Z" transform="translate(0 0)"/></svg>