<svg xmlns="http://www.w3.org/2000/svg" width="50" height="50" viewBox="0 0 50 50"><defs><style>.a{fill:#fff;}</style></defs><path class="a" d="M47,2H17a5.015,5.015,0,0,0-5,5V37a5.015,5.015,0,0,0,5,5H47a5.015,5.015,0,0,0,5-5V7A5.015,5.015,0,0,0,47,2ZM39.5,14.5h-5V27.925a6.459,6.459,0,0,1-5.4,6.5A6.249,6.249,0,1,1,27.85,22,6.141,6.141,0,0,1,32,23.275V12a2.507,2.507,0,0,1,2.5-2.5h5a2.5,2.5,0,1,1,0,5ZM4.5,12A2.507,2.507,0,0,0,2,14.5V47a5.015,5.015,0,0,0,5,5H39.5a2.5,2.5,0,1,0,0-5H9.5A2.507,2.507,0,0,1,7,44.5v-30A2.507,2.507,0,0,0,4.5,12Z" transform="translate(-2 -2)"/></svg>