<svg xmlns="http://www.w3.org/2000/svg" width="50" height="50" viewBox="0 0 50 50"><defs><style>.a{fill:none;}.b{fill:#fff;}</style></defs><path class="a" d="M0,0H50V50H0Z"/><path class="b" d="M24.977,2A23,23,0,1,0,48,25,22.989,22.989,0,0,0,24.977,2ZM25,43.4A18.4,18.4,0,1,1,43.4,25,18.395,18.395,0,0,1,25,43.4Zm-.506-29.9h-.138A1.649,1.649,0,0,0,22.7,15.156V26.012a2.277,2.277,0,0,0,1.127,1.978l9.545,5.727a1.645,1.645,0,1,0,1.679-2.829l-8.9-5.29V15.156A1.649,1.649,0,0,0,24.494,13.5Z" transform="translate(0 0)"/></svg>